<svg width="25" height="25" viewBox="0 0 25 25" fill="none" xmlns="http://www.w3.org/2000/svg">
<path d="M18.6618 22.0363C17.7818 22.2963 16.7418 22.4163 15.5218 22.4163H9.52177C8.30177 22.4163 7.26177 22.2963 6.38177 22.0363C6.60177 19.4363 9.27177 17.3862 12.5218 17.3862C15.7718 17.3862 18.4418 19.4363 18.6618 22.0363Z" stroke="#292D32" stroke-width="1.5" stroke-linecap="round" stroke-linejoin="round"/>
<path d="M15.5218 2.41626H9.52179C4.52179 2.41626 2.52179 4.41626 2.52179 9.41626V15.4163C2.52179 19.1963 3.66179 21.2663 6.38179 22.0363C6.60179 19.4363 9.27179 17.3862 12.5218 17.3862C15.7718 17.3862 18.4418 19.4363 18.6618 22.0363C21.3818 21.2663 22.5218 19.1963 22.5218 15.4163V9.41626C22.5218 4.41626 20.5218 2.41626 15.5218 2.41626ZM12.5218 14.5862C10.5418 14.5862 8.94179 12.9763 8.94179 10.9963C8.94179 9.01628 10.5418 7.41626 12.5218 7.41626C14.5018 7.41626 16.1018 9.01628 16.1018 10.9963C16.1018 12.9763 14.5018 14.5862 12.5218 14.5862Z" stroke="#292D32" stroke-width="1.5" stroke-linecap="round" stroke-linejoin="round"/>
<path d="M16.1018 10.9963C16.1018 12.9763 14.5018 14.5862 12.5218 14.5862C10.5418 14.5862 8.94177 12.9763 8.94177 10.9963C8.94177 9.01628 10.5418 7.41626 12.5218 7.41626C14.5018 7.41626 16.1018 9.01628 16.1018 10.9963Z" stroke="#292D32" stroke-width="1.5" stroke-linecap="round" stroke-linejoin="round"/>
</svg>
