<svg width="25" height="25" viewBox="0 0 25 25" fill="none" xmlns="http://www.w3.org/2000/svg">
<path d="M9.52173 22.416H15.5217C20.5217 22.416 22.5217 20.416 22.5217 15.416V9.41602C22.5217 4.41602 20.5217 2.41602 15.5217 2.41602H9.52173C4.52173 2.41602 2.52173 4.41602 2.52173 9.41602V15.416C2.52173 20.416 4.52173 22.416 9.52173 22.416Z" stroke="#292D32" stroke-width="1.5" stroke-linecap="round" stroke-linejoin="round"/>
<path d="M16.0917 18.9161V15.0161" stroke="#292D32" stroke-width="1.5" stroke-miterlimit="10" stroke-linecap="round" stroke-linejoin="round"/>
<path d="M16.0917 7.86602V5.91602" stroke="#292D32" stroke-width="1.5" stroke-miterlimit="10" stroke-linecap="round" stroke-linejoin="round"/>
<path d="M16.0917 13.066C17.5276 13.066 18.6917 11.9019 18.6917 10.466C18.6917 9.03003 17.5276 7.86597 16.0917 7.86597C14.6558 7.86597 13.4917 9.03003 13.4917 10.466C13.4917 11.9019 14.6558 13.066 16.0917 13.066Z" stroke="#292D32" stroke-width="1.5" stroke-miterlimit="10" stroke-linecap="round" stroke-linejoin="round"/>
<path d="M8.95172 18.9161V16.9661" stroke="#292D32" stroke-width="1.5" stroke-miterlimit="10" stroke-linecap="round" stroke-linejoin="round"/>
<path d="M8.95172 9.81602V5.91602" stroke="#292D32" stroke-width="1.5" stroke-miterlimit="10" stroke-linecap="round" stroke-linejoin="round"/>
<path d="M8.95175 16.9661C10.3877 16.9661 11.5517 15.8021 11.5517 14.3661C11.5517 12.9302 10.3877 11.7661 8.95175 11.7661C7.51581 11.7661 6.35175 12.9302 6.35175 14.3661C6.35175 15.8021 7.51581 16.9661 8.95175 16.9661Z" stroke="#292D32" stroke-width="1.5" stroke-miterlimit="10" stroke-linecap="round" stroke-linejoin="round"/>
</svg>
