<svg width="67" height="24" viewBox="0 0 67 24" fill="none" xmlns="http://www.w3.org/2000/svg">
<path d="M8.304 6.768V8.96H3.728V11.328H7.152V13.456H3.728V18H0.992V6.768H8.304ZM18.718 9.072V18H15.982V16.784C15.7047 17.1787 15.326 17.4987 14.846 17.744C14.3767 17.9787 13.854 18.096 13.278 18.096C12.5953 18.096 11.9927 17.9467 11.47 17.648C10.9473 17.3387 10.542 16.896 10.254 16.32C9.966 15.744 9.822 15.0667 9.822 14.288V9.072H12.542V13.92C12.542 14.5173 12.6967 14.9813 13.006 15.312C13.3153 15.6427 13.7313 15.808 14.254 15.808C14.7873 15.808 15.2087 15.6427 15.518 15.312C15.8273 14.9813 15.982 14.5173 15.982 13.92V9.072H18.718ZM29.2592 13.392C29.2592 13.648 29.2432 13.9147 29.2113 14.192H23.0192C23.0619 14.7467 23.2379 15.1733 23.5472 15.472C23.8672 15.76 24.2566 15.904 24.7153 15.904C25.3979 15.904 25.8726 15.616 26.1392 15.04H29.0513C28.9019 15.6267 28.6299 16.1547 28.2353 16.624C27.8513 17.0933 27.3659 17.4613 26.7793 17.728C26.1926 17.9947 25.5366 18.128 24.8112 18.128C23.9366 18.128 23.1579 17.9413 22.4752 17.568C21.7926 17.1947 21.2592 16.6613 20.8752 15.968C20.4912 15.2747 20.2992 14.464 20.2992 13.536C20.2992 12.608 20.4859 11.7973 20.8592 11.104C21.2432 10.4107 21.7766 9.87733 22.4592 9.504C23.1419 9.13067 23.9259 8.944 24.8112 8.944C25.6753 8.944 26.4433 9.12533 27.1153 9.488C27.7873 9.85067 28.3099 10.368 28.6833 11.04C29.0672 11.712 29.2592 12.496 29.2592 13.392ZM26.4592 12.672C26.4592 12.2027 26.2992 11.8293 25.9792 11.552C25.6592 11.2747 25.2593 11.136 24.7793 11.136C24.3206 11.136 23.9312 11.2693 23.6112 11.536C23.3019 11.8027 23.1099 12.1813 23.0352 12.672H26.4592ZM33.5986 6.16V18H30.8626V6.16H33.5986ZM35.1974 13.536C35.1974 12.608 35.384 11.7973 35.7574 11.104C36.1414 10.4107 36.6694 9.87733 37.3414 9.504C38.024 9.13067 38.8027 8.944 39.6774 8.944C40.7974 8.944 41.7307 9.23733 42.4774 9.824C43.2347 10.4107 43.7307 11.2373 43.9654 12.304H41.0534C40.808 11.6213 40.3334 11.28 39.6294 11.28C39.128 11.28 38.728 11.4773 38.4294 11.872C38.1307 12.256 37.9814 12.8107 37.9814 13.536C37.9814 14.2613 38.1307 14.8213 38.4294 15.216C38.728 15.6 39.128 15.792 39.6294 15.792C40.3334 15.792 40.808 15.4507 41.0534 14.768H43.9654C43.7307 15.8133 43.2347 16.6347 42.4774 17.232C41.72 17.8293 40.7867 18.128 39.6774 18.128C38.8027 18.128 38.024 17.9413 37.3414 17.568C36.6694 17.1947 36.1414 16.6613 35.7574 15.968C35.384 15.2747 35.1974 14.464 35.1974 13.536ZM45.0449 13.52C45.0449 12.6027 45.2155 11.7973 45.5569 11.104C45.9089 10.4107 46.3835 9.87733 46.9809 9.504C47.5782 9.13067 48.2449 8.944 48.9809 8.944C49.6102 8.944 50.1595 9.072 50.6289 9.328C51.1089 9.584 51.4769 9.92 51.7329 10.336V9.072H54.4689V18H51.7329V16.736C51.4662 17.152 51.0929 17.488 50.6129 17.744C50.1435 18 49.5942 18.128 48.9649 18.128C48.2395 18.128 47.5782 17.9413 46.9809 17.568C46.3835 17.184 45.9089 16.6453 45.5569 15.952C45.2155 15.248 45.0449 14.4373 45.0449 13.52ZM51.7329 13.536C51.7329 12.8533 51.5409 12.3147 51.1569 11.92C50.7835 11.5253 50.3249 11.328 49.7809 11.328C49.2369 11.328 48.7729 11.5253 48.3889 11.92C48.0155 12.304 47.8289 12.8373 47.8289 13.52C47.8289 14.2027 48.0155 14.7467 48.3889 15.152C48.7729 15.5467 49.2369 15.744 49.7809 15.744C50.3249 15.744 50.7835 15.5467 51.1569 15.152C51.5409 14.7573 51.7329 14.2187 51.7329 13.536ZM59.3442 10.336C59.6002 9.92 59.9682 9.584 60.4482 9.328C60.9282 9.072 61.4776 8.944 62.0962 8.944C62.8322 8.944 63.4989 9.13067 64.0962 9.504C64.6936 9.87733 65.1629 10.4107 65.5042 11.104C65.8562 11.7973 66.0322 12.6027 66.0322 13.52C66.0322 14.4373 65.8562 15.248 65.5042 15.952C65.1629 16.6453 64.6936 17.184 64.0962 17.568C63.4989 17.9413 62.8322 18.128 62.0962 18.128C61.4669 18.128 60.9176 18.0053 60.4482 17.76C59.9789 17.504 59.6109 17.168 59.3442 16.752V18H56.6082V6.16H59.3442V10.336ZM63.2482 13.52C63.2482 12.8373 63.0562 12.304 62.6722 11.92C62.2989 11.5253 61.8349 11.328 61.2802 11.328C60.7362 11.328 60.2722 11.5253 59.8882 11.92C59.5149 12.3147 59.3282 12.8533 59.3282 13.536C59.3282 14.2187 59.5149 14.7573 59.8882 15.152C60.2722 15.5467 60.7362 15.744 61.2802 15.744C61.8242 15.744 62.2882 15.5467 62.6722 15.152C63.0562 14.7467 63.2482 14.2027 63.2482 13.52Z" fill="black"/>
</svg>
