<svg width="24" height="25" viewBox="0 0 24 25" fill="none" xmlns="http://www.w3.org/2000/svg">
<path d="M5.46942 9.41553C7.40242 9.41553 8.96942 7.84852 8.96942 5.91553C8.96942 3.98253 7.40242 2.41553 5.46942 2.41553C3.53642 2.41553 1.96942 3.98253 1.96942 5.91553C1.96942 7.84852 3.53642 9.41553 5.46942 9.41553Z" stroke="#292D32" stroke-width="1.5"/>
<path d="M16.9694 15.4155H19.9694C21.0694 15.4155 21.9694 16.3155 21.9694 17.4155V20.4155C21.9694 21.5155 21.0694 22.4155 19.9694 22.4155H16.9694C15.8694 22.4155 14.9694 21.5155 14.9694 20.4155V17.4155C14.9694 16.3155 15.8694 15.4155 16.9694 15.4155Z" stroke="#292D32" stroke-width="1.5"/>
<path d="M11.9995 5.41553H14.6795C16.5295 5.41553 17.3895 7.70553 15.9995 8.92553L8.00946 15.9155C6.61946 17.1255 7.47946 19.4155 9.31946 19.4155H11.9995" stroke="#292D32" stroke-width="1.5" stroke-linecap="round" stroke-linejoin="round"/>
<path d="M5.48567 5.91553H5.49722" stroke="#292D32" stroke-width="2" stroke-linecap="round" stroke-linejoin="round"/>
<path d="M18.4857 18.9155H18.4972" stroke="#292D32" stroke-width="2" stroke-linecap="round" stroke-linejoin="round"/>
</svg>
